<?xml version="1.0" encoding="utf-8"?>
<!-- Generator: Adobe Illustrator 15.1.0, SVG Export Plug-In  -->
<!DOCTYPE svg PUBLIC "-//W3C//DTD SVG 1.1//EN" "http://www.w3.org/Graphics/SVG/1.1/DTD/svg11.dtd" [
	<!ENTITY ns_flows "http://ns.adobe.com/Flows/1.0/">
]>
<svg version="1.1"
	 xmlns="http://www.w3.org/2000/svg" xmlns:xlink="http://www.w3.org/1999/xlink" xmlns:a="http://ns.adobe.com/AdobeSVGViewerExtensions/3.0/"
	 x="0px" y="0px" width="293px" height="63px" viewBox="0 0 293 63" enable-background="new 0 0 293 63" xml:space="preserve">
<defs>
</defs>
<path fill="#FFFFFF" d="M87.9,23.2L97.1,0h4.6l9.3,23.2l-4.9,0l-1.4-3.6H94.2l-1.4,3.6H87.9z M99.6,6.2L96.1,15h7L99.6,6.2z"/>
<path fill="#FFFFFF" d="M118.7,0v18.9h12.4v4.3h-17V0H118.7z"/>
<path fill="#FFFFFF" d="M134.4,23.2V0l17.1,0v4.3H139v5h9.3v4.3H139v5.3h12.4v4.3H134.4z"/>
<path fill="#FFFFFF" d="M163.2,11.1L155.1,0h5.5l5.4,7.4l5.4-7.4h5.5l-8.1,11.1l8.9,12.1h-5.5l-6.1-8.3l-6.1,8.3h-5.5L163.2,11.1z"
	/>
<path fill="#FFFFFF" d="M178.9,23.2L188.2,0h4.6l9.3,23.2l-4.9,0l-1.4-3.6h-10.5l-1.4,3.6H178.9z M190.6,6.2l-3.5,8.8h7L190.6,6.2z"
	/>
<path fill="#FFFFFF" d="M205.1,23.2V0h1.5l14.6,14.6V0h4.6v23.2h-1.7L209.7,8.8v14.4H205.1z"/>
<path fill="#FFFFFF" d="M230.1,23.2V0h9c7.2,0,10.8,3.9,10.8,11.6c0,7.7-3.6,11.6-10.8,11.6H230.1z M239.1,18.6c4.1,0,6.2-2.3,6.2-7
	c0-4.6-2.1-7-6.2-7h-4.3v14H239.1z"/>
<path fill="#FFFFFF" d="M268.4,13.1l5.8,10.1h-5.3l-5.6-9.6H259v9.6h-4.6V0h10.1c5.4,0,8.1,2.2,8.1,6.7
	C272.7,10.1,271.2,12.2,268.4,13.1z M259,9.3h6.5c1.9,0,2.8-0.9,2.9-2.6c-0.1-1.5-1-2.3-2.8-2.4H259V9.3z"/>
<path fill="#FFFFFF" d="M276,23.2V0l17.1,0v4.3h-12.4v5h9.3v4.3h-9.3v5.3h12.4v4.3H276z"/>
<path fill="#FFFFFF" d="M95.8,27.3c1.2,0.5,2.3,1.3,3.3,2.3l-3.1,3.1c-1-1.2-2.5-1.9-4.3-1.9s-3,0.4-3.6,1.3c-0.5,0.9-0.5,1.6,0,2.2
	c0.5,0.6,1.7,1.1,3.6,1.4c2,0.2,3.7,0.9,5.3,1.9c1.6,1.1,2.4,2.8,2.4,5.2c0,1.9-0.9,3.5-2.6,4.8c-1.7,1.3-3.7,2-6,2
	c-2.2,0-4-0.3-5.4-0.9c-1.4-0.6-2.7-1.4-3.7-2.5l3.1-3.1c1,1.2,2.8,2,5.3,2.2c2.1,0,3.4-0.4,3.9-1.3c0.5-0.9,0.5-1.8,0-2.6
	c-0.5-0.9-1.8-1.4-3.9-1.6c-1.9-0.2-3.6-0.8-5.1-1.7c-1.5-0.9-2.3-2.5-2.3-4.8c0-2.1,0.9-3.7,2.6-4.9c1.8-1.2,3.6-1.9,5.4-1.9
	C93,26.6,94.7,26.8,95.8,27.3z"/>
<path fill="#FFFFFF" d="M103.1,49.8V26.6l17.1,0v4.3h-12.4v5h9.3v4.3h-9.3v5.3h12.4v4.3H103.1z"/>
<path fill="#FFFFFF" d="M138.3,39.7l5.8,10.1h-5.3l-5.6-9.6H129v9.6h-4.6V26.6h10.1c5.4,0,8.1,2.2,8.1,6.7
	C142.6,36.6,141.2,38.7,138.3,39.7z M129,35.8h6.5c1.9,0,2.8-0.9,2.9-2.6c-0.1-1.5-1-2.3-2.8-2.4H129V35.8z"/>
<path fill="#FFFFFF" d="M149.6,26.6l6.6,17l6.7-17h5l-9.3,23.2H154l-9.3-23.2H149.6z"/>
<path fill="#FFFFFF" d="M171.3,26.5h4.6v23.2h-4.6V26.5z"/>
<path fill="#FFFFFF" d="M178.9,49.8l9.3-23.2h4.6l9.3,23.2l-4.9,0l-1.4-3.6h-10.5l-1.4,3.6H178.9z M190.6,32.7l-3.5,8.8h7
	L190.6,32.7z"/>
<path fill="#FFFFFF" d="M205.1,49.8V26.6h1.5l14.6,14.6V26.6h4.6v23.2h-1.7l-14.4-14.4v14.4H205.1z"/>
<path fill="#FFFFFF" d="M73.8,55.6h2.5c2.1,0,2.4,2,2.4,3.4c0,1.5-0.6,3.3-2.4,3.3h-2.5V55.6z M76.3,61.7c1.2,0,1.7-1.2,1.7-2.6
	c0-2-0.6-2.7-1.7-2.7h-1.8v5.3H76.3z"/>
<path fill="#FFFFFF" d="M81,56.8c0-0.9,0.5-1.2,1.2-1.2l2.9,0.1v0.5h-2.9c-0.5,0-0.5,0.3-0.5,0.5v1.8l3,0.1v0.5l-3,0.1v1.8
	c0,0.5,0.3,0.5,0.6,0.5h2.8v0.5l-2.8,0.2c-0.6,0-1.3-0.1-1.3-1.2V56.8z"/>
<path fill="#FFFFFF" d="M87.5,57.2c0-1.3,0.8-1.6,1.8-1.6c0.5,0,1.9,0.2,2.3,0.2v0.6c-0.6,0-2.3-0.1-2.3-0.1c-0.6,0-1.1,0-1.1,1v0.6
	c0,0.8,0.4,0.9,0.9,0.9h1.3c1.2,0,1.4,0.8,1.4,1.6v0.6c0,1.3-0.9,1.5-1.9,1.5c-0.5,0-1.9-0.2-2.3-0.2v-0.6c0.4,0,1.4,0.1,2.3,0.1
	c0.4,0,1.2,0,1.2-0.8v-0.6c0-0.5-0.2-0.9-0.8-0.9h-1.3c-1.5,0-1.6-0.8-1.6-1.6V57.2z"/>
<path fill="#FFFFFF" d="M94.4,56.8c0-0.9,0.5-1.2,1.2-1.2l2.9,0.1v0.5h-2.9c-0.5,0-0.5,0.3-0.5,0.5v1.8l3,0.1v0.5l-3,0.1v1.8
	c0,0.5,0.3,0.5,0.6,0.5h2.8v0.5l-2.8,0.2c-0.6,0-1.3-0.1-1.3-1.2V56.8z"/>
<path fill="#FFFFFF" d="M101,55.6h0.7l3.6,5.5v-5.5h0.7v6.7h-0.7l-3.6-5.5v5.5H101V55.6z"/>
<path fill="#FFFFFF" d="M109,55.6l2,5.6l2.1-5.6h0.7l-2.5,6.7h-0.7l-2.4-6.7H109z"/>
<path fill="#FFFFFF" d="M118.3,55.6c1.6,0,2.6,0.3,2.6,3.5c0,3-0.9,3.4-2.6,3.4s-2.6-0.3-2.6-3.4C115.7,55.9,116.7,55.6,118.3,55.6z
	 M118.3,61.7c1.4,0,1.9-0.4,1.9-2.7c0-2.8-0.7-2.8-1.9-2.8c-1.2,0-1.9,0-1.9,2.8C116.4,61.4,116.8,61.7,118.3,61.7z"/>
<path fill="#FFFFFF" d="M123.4,55.6h0.7v5.6c0,0.5,0.3,0.5,0.6,0.5h2.8v0.7h-2.8c-0.6,0-1.3-0.1-1.3-1.2V55.6z"/>
<path fill="#FFFFFF" d="M129.3,55.6l2,5.6l2.1-5.6h0.7l-2.5,6.7h-0.7l-2.4-6.7H129.3z"/>
<path fill="#FFFFFF" d="M136,56.8c0-0.9,0.5-1.2,1.2-1.2l2.9,0.1v0.5h-2.9c-0.5,0-0.5,0.3-0.5,0.5v1.8l3,0.1v0.5l-3,0.1v1.8
	c0,0.5,0.3,0.5,0.6,0.5h2.8v0.5l-2.8,0.2c-0.6,0-1.3-0.1-1.3-1.2V56.8z"/>
<path fill="#FFFFFF" d="M142.6,55.6h2.5c2.1,0,2.4,2,2.4,3.4c0,1.5-0.6,3.3-2.4,3.3h-2.5V55.6z M145.1,61.7c1.2,0,1.7-1.2,1.7-2.6
	c0-2-0.6-2.7-1.7-2.7h-1.8v5.3H145.1z"/>
<path fill="#FFFFFF" d="M152.4,55.6c1.6,0,2.6,0.3,2.6,3.5c0,3-0.9,3.4-2.6,3.4s-2.6-0.3-2.6-3.4C149.7,55.9,150.8,55.6,152.4,55.6z
	 M152.4,61.7c1.4,0,1.9-0.4,1.9-2.7c0-2.8-0.7-2.8-1.9-2.8c-1.2,0-1.9,0-1.9,2.8C150.4,61.4,150.9,61.7,152.4,61.7z"/>
<path fill="#FFFFFF" d="M157.3,55.6h2.9c0.9,0,1.6,0.5,1.6,2c0,1.7-0.9,1.9-1.2,1.9l1.4,2.8h-0.7l-1.4-2.8l-1.8-0.1v2.9h-0.7V55.6z
	 M160.2,58.9c0.4,0,0.9,0,0.9-1.2c0-1.2-0.5-1.3-0.9-1.3H158v2.6H160.2z"/>
<path fill="#FFFFFF" d="M168,56.8c0-0.9,0.5-1.2,1.2-1.2l2.9,0.1v0.5h-2.9c-0.5,0-0.5,0.3-0.5,0.5v1.8l3,0.1v0.5l-3,0.1v3H168V56.8z
	"/>
<path fill="#FFFFFF" d="M174.4,55.6h2.9c0.9,0,1.6,0.5,1.6,2c0,1.7-0.9,1.9-1.2,1.9l1.4,2.8h-0.7l-1.4-2.8l-1.8-0.1v2.9h-0.7V55.6z
	 M177.3,58.9c0.4,0,0.9,0,0.9-1.2c0-1.2-0.5-1.3-0.9-1.3h-2.2v2.6H177.3z"/>
<path fill="#FFFFFF" d="M183.7,55.6c1.6,0,2.6,0.3,2.6,3.5c0,3-0.9,3.4-2.6,3.4c-1.7,0-2.6-0.3-2.6-3.4
	C181.1,55.9,182.2,55.6,183.7,55.6z M183.7,61.7c1.4,0,1.9-0.4,1.9-2.7c0-2.8-0.7-2.8-1.9-2.8c-1.2,0-1.9,0-1.9,2.8
	C181.8,61.4,182.3,61.7,183.7,61.7z"/>
<path fill="#FFFFFF" d="M188.8,55.6h0.7l3.6,5.5v-5.5h0.7v6.7h-0.7l-3.6-5.5v5.5h-0.7V55.6z"/>
<path fill="#FFFFFF" d="M196.2,55.6h4.7v0.7h-2v6.1h-0.7v-6.1h-2V55.6z"/>
<path fill="#FFFFFF" d="M202.6,59.4h2.9V60h-2.9V59.4z"/>
<path fill="#FFFFFF" d="M207.8,56.8c0-0.9,0.5-1.2,1.2-1.2l2.9,0.1v0.5H209c-0.5,0-0.5,0.3-0.5,0.5v1.8l3,0.1v0.5l-3,0.1v1.8
	c0,0.5,0.3,0.5,0.6,0.5h2.8v0.5l-2.8,0.2c-0.6,0-1.3-0.1-1.3-1.2V56.8z"/>
<path fill="#FFFFFF" d="M214.4,55.6h0.7l3.6,5.5v-5.5h0.7v6.7h-0.7l-3.6-5.5v5.5h-0.7V55.6z"/>
<path fill="#FFFFFF" d="M222.1,55.6h2.5c2.1,0,2.4,2,2.4,3.4c0,1.5-0.6,3.3-2.4,3.3h-2.5V55.6z M224.6,61.7c1.2,0,1.7-1.2,1.7-2.6
	c0-2-0.6-2.7-1.7-2.7h-1.8v5.3H224.6z"/>
<polygon fill="#F2633E" points="59.2,63.1 0,63.1 25.2,0.1 84.4,0.1 "/>
<polygon fill="#FFFFFF" points="36.3,47.7 34.6,51.4 34.6,51.4 34.6,51.4 35.6,53.7 40.5,53.7 39.9,55.1 34.8,55.1 31.3,47.7 
	31.3,47.7 28.7,47.7 28.6,47.7 28.6,47.7 24.1,57.4 26.8,57.4 30,50.5 33.2,57.4 33.7,57.4 35.8,57.4 41.7,57.4 42.9,55.1 
	42.8,55.1 44.1,52.4 44.1,52.4 44.6,51.4 37.5,51.4 38.2,49.9 45.3,49.9 46.3,47.7 39.3,47.7 "/>
<polygon fill="#FFFFFF" points="13.9,51.4 13.9,51.5 13.9,53.7 13.9,53.7 22,57.4 22,55.2 16.3,52.6 22,49.9 22,47.7 13.9,51.5 "/>
<polygon fill="#FFFFFF" points="56.1,51.5 48.1,47.7 48.1,49.9 53.8,52.6 48.1,55.2 48.1,57.4 56.2,53.7 56.2,53.7 56.2,51.5 
	56.2,51.4 "/>
<path fill="#F57F3D" d="M8.3,42.3c10.4-8.3,25.3-21.5,38-27.9C62,6.6,74.1,3.1,84.1,0.8l0.3-0.7H25.2L8.3,42.3z"/>
</svg>
