<?xml version="1.0" encoding="UTF-8" standalone="no"?>
<svg
   xmlns:dc="http://purl.org/dc/elements/1.1/"
   xmlns:cc="http://creativecommons.org/ns#"
   xmlns:rdf="http://www.w3.org/1999/02/22-rdf-syntax-ns#"
   xmlns:svg="http://www.w3.org/2000/svg"
   xmlns="http://www.w3.org/2000/svg"
   xmlns:sodipodi="http://sodipodi.sourceforge.net/DTD/sodipodi-0.dtd"
   xmlns:inkscape="http://www.inkscape.org/namespaces/inkscape"
   width="512"
   height="512"
   viewBox="0 0 135.46666 135.46667"
   version="1.1"
   id="svg145"
   inkscape:version="1.0 (6e3e5246a0, 2020-05-07)"
   sodipodi:docname="as-icon.svg">
  <defs
     id="defs139" />
  <sodipodi:namedview
     inkscape:snap-grids="true"
     units="px"
     id="base"
     pagecolor="#ffffff"
     bordercolor="#666666"
     borderopacity="1.0"
     inkscape:pageopacity="0.0"
     inkscape:pageshadow="2"
     inkscape:zoom="0.89571167"
     inkscape:cx="-83.046697"
     inkscape:cy="197.15566"
     inkscape:document-units="mm"
     inkscape:current-layer="layer1"
     inkscape:document-rotation="0"
     showgrid="false"
     inkscape:window-width="1920"
     inkscape:window-height="1016"
     inkscape:window-x="0"
     inkscape:window-y="27"
     inkscape:window-maximized="1" />
  <metadata
     id="metadata142">
    <rdf:RDF>
      <cc:Work
         rdf:about="">
        <dc:format>image/svg+xml</dc:format>
        <dc:type
           rdf:resource="http://purl.org/dc/dcmitype/StillImage" />
        <dc:title />
      </cc:Work>
    </rdf:RDF>
  </metadata>
  <g
     inkscape:label="Layer 1"
     inkscape:groupmode="layer"
     id="layer1">
    <rect
       style="fill:#f2633e;stroke-width:0.313874"
       id="rect903"
       width="135.46666"
       height="135.46666"
       x="0"
       y="1.7763568e-15" />
    <polygon
       id="polygon90"
       points="40.5,53.7 39.9,55.1 34.8,55.1 31.3,47.7 28.7,47.7 28.6,47.7 24.1,57.4 26.8,57.4 30,50.5 33.2,57.4 33.7,57.4 35.8,57.4 41.7,57.4 42.9,55.1 42.8,55.1 44.1,52.4 44.6,51.4 37.5,51.4 38.2,49.9 45.3,49.9 46.3,47.7 39.3,47.7 36.3,47.7 34.6,51.4 35.6,53.7 "
       fill="#ffffff"
       transform="matrix(3.1313243,0,0,3.1313243,-42.510315,-99.47025)" />
    <polygon
       id="polygon92"
       points="13.9,53.7 22,57.4 22,55.2 16.3,52.6 22,49.9 22,47.7 13.9,51.5 13.9,51.4 13.9,51.5 "
       fill="#ffffff"
       transform="matrix(3.1313243,0,0,3.1313243,-42.510315,-99.47025)" />
    <polygon
       id="polygon94"
       points="48.1,49.9 53.8,52.6 48.1,55.2 48.1,57.4 56.2,53.7 56.2,51.5 56.2,51.4 56.1,51.5 48.1,47.7 "
       fill="#ffffff"
       transform="matrix(3.1313243,0,0,3.1313243,-42.510315,-99.47025)" />
  </g>
</svg>
