<?xml version="1.0" encoding="UTF-8" standalone="no"?>
<svg
   xmlns:dc="http://purl.org/dc/elements/1.1/"
   xmlns:cc="http://creativecommons.org/ns#"
   xmlns:rdf="http://www.w3.org/1999/02/22-rdf-syntax-ns#"
   xmlns:svg="http://www.w3.org/2000/svg"
   xmlns="http://www.w3.org/2000/svg"
   xmlns:sodipodi="http://sodipodi.sourceforge.net/DTD/sodipodi-0.dtd"
   xmlns:inkscape="http://www.inkscape.org/namespaces/inkscape"
   inkscape:version="1.0 (6e3e5246a0, 2020-05-07)"
   sodipodi:docname="iconmonstr-medium-5.svg"
   id="svg4"
   version="1.1"
   clip-rule="evenodd"
   fill-rule="evenodd"
   height="24"
   width="24">
  <metadata
     id="metadata10">
    <rdf:RDF>
      <cc:Work
         rdf:about="">
        <dc:format>image/svg+xml</dc:format>
        <dc:type
           rdf:resource="http://purl.org/dc/dcmitype/StillImage" />
      </cc:Work>
    </rdf:RDF>
  </metadata>
  <defs
     id="defs8" />
  <sodipodi:namedview
     inkscape:current-layer="svg4"
     inkscape:window-maximized="1"
     inkscape:window-y="27"
     inkscape:window-x="0"
     inkscape:cy="12"
     inkscape:cx="10.797297"
     inkscape:zoom="37"
     showgrid="false"
     id="namedview6"
     inkscape:window-height="1016"
     inkscape:window-width="1920"
     inkscape:pageshadow="2"
     inkscape:pageopacity="0"
     guidetolerance="10"
     gridtolerance="10"
     objecttolerance="10"
     borderopacity="1"
     bordercolor="#666666"
     pagecolor="#ffffff" />
  <path
     style="fill:#ffffff;fill-opacity:1"
     id="path2"
     d="M12 0c-6.627 0-12 5.373-12 12s5.373 12 12 12 12-5.373 12-12-5.373-12-12-12zm0 2c5.514 0 10 4.486 10 10s-4.486 10-10 10-10-4.486-10-10 4.486-10 10-10zm-2.426 14.741h-3.574v-.202l1.261-1.529c.134-.139.195-.335.162-.526v-5.304c.015-.147-.041-.293-.151-.392l-1.121-1.35v-.201h3.479l2.689 5.897 2.364-5.897h3.317v.201l-.958.919c-.083.063-.124.166-.106.269v6.748c-.018.103.023.206.106.269l.936.919v.201h-4.706v-.201l.969-.941c.095-.095.095-.123.095-.269v-5.455l-2.695 6.844h-.364l-3.137-6.844v4.587c-.026.193.038.387.174.526l1.26 1.529v.202z" />
</svg>
